<svg width="27" height="28" viewBox="0 0 27 28" fill="none" xmlns="http://www.w3.org/2000/svg">
<path d="M11.4018 24.5L10.9946 21.126C10.6353 21.0132 10.2472 20.8367 9.83022 20.5963C9.41247 20.3552 9.05697 20.097 8.76372 19.8217L5.76335 21.1458L3.66522 17.3542L6.25835 15.3265C6.22535 15.1149 6.19797 14.8972 6.17622 14.6732C6.15522 14.4499 6.14472 14.2329 6.14472 14.0222C6.14472 13.8262 6.15522 13.6201 6.17622 13.4038C6.19722 13.1876 6.2246 12.9442 6.25835 12.6735L3.66522 10.6458L5.76335 6.8985L8.74235 8.20167C9.07835 7.91156 9.4421 7.64983 9.8336 7.4165C10.2236 7.18317 10.6035 7.00272 10.9732 6.87517L11.4007 3.5H15.5981L16.0053 6.89733C16.4366 7.05367 16.8176 7.23372 17.1483 7.4375C17.4798 7.64128 17.8207 7.89561 18.171 8.2005L21.2366 6.8985L23.3347 10.6458L20.655 12.7412C20.7165 12.9823 20.751 13.2032 20.7585 13.4038C20.766 13.6061 20.7697 13.8048 20.7697 14C20.7697 14.1812 20.7622 14.3722 20.7472 14.5728C20.733 14.7743 20.7 15.0177 20.6482 15.3032L23.2852 17.3542L21.1871 21.1458L18.171 19.7995C17.8207 20.1044 17.4682 20.3661 17.1135 20.5847C16.758 20.8032 16.3886 20.9759 16.0053 21.1027L15.5981 24.5H11.4018ZM13.4696 16.9167C14.2541 16.9167 14.919 16.6339 15.4642 16.0685C16.0095 15.5031 16.2821 14.8136 16.2821 14C16.2821 13.1864 16.0095 12.4969 15.4642 11.9315C14.919 11.3661 14.2541 11.0833 13.4696 11.0833C12.6806 11.0833 12.0146 11.3661 11.4716 11.9315C10.9286 12.4969 10.6571 13.1864 10.6571 14C10.6571 14.8136 10.9286 15.5031 11.4716 16.0685C12.0146 16.6339 12.6806 16.9167 13.4696 16.9167Z" fill="#888888"/>
</svg>
